<?xml version="1.0" standalone="no"?><!DOCTYPE svg PUBLIC "-//W3C//DTD SVG 1.1//EN" "http://www.w3.org/Graphics/SVG/1.1/DTD/svg11.dtd"><svg t="1773053315472" class="icon" viewBox="0 0 1024 1024" version="1.1" xmlns="http://www.w3.org/2000/svg" p-id="24620" xmlns:xlink="http://www.w3.org/1999/xlink" width="200" height="200"><path d="M154.085053 309.894737h-38.265264C85.315368 328.596211 70.063158 351.070316 70.063158 377.263158v134.736842c110.484211 82.674526 229.699368 120.185263 357.699368 112.64 128-7.653053 193.320421-35.678316 195.961263-84.129684l124.389053-115.712v-59.284211c-10.671158-37.079579-36.594526-55.619368-77.71621-55.619368H154.138947z" fill="#E5EFFC" p-id="24621"></path><path d="M175.104 859.082105H109.082947A95.285895 95.285895 0 0 1 14.012632 764.065684v-1.077895l35.247157-387.395368a95.393684 95.393684 0 0 1 58.745264-86.716632c0.269474-76.530526 34.492632-145.946947 88.98021-195.584C251.688421 43.331368 326.871579 12.773053 409.653895 12.773053c82.674526 0 157.857684 30.558316 212.560842 80.464842 54.433684 49.583158 88.764632 118.999579 88.98021 195.637894a95.393684 95.393684 0 0 1 58.745264 85.153685c55.134316-50.768842 92.968421-84.614737 93.776842-85.369263a27.917474 27.917474 0 0 1 33.145263-2.964211c3.664842 2.263579 88.279579 55.511579 103.855158 162.007579 11.641263 80.303158-26.947368 133.820632-58.206316 176.774737-10.078316 13.904842-19.671579 27.162947-25.653895 39.073684-21.072842 42.199579-44.570947 126.113684-36.648421 286.612211a27.755789 27.755789 0 0 1-26.408421 29.103157l-1.347368 0.053895a27.809684 27.809684 0 0 1-27.809685-26.408421c-6.844632-138.617263 7.383579-244.304842 42.415158-314.26021 8.084211-16.006737 18.863158-30.881684 30.342737-46.834527 27.809684-38.534737 56.589474-78.255158 48.020211-136.192-8.084211-55.619368-41.337263-92.429474-61.709474-110.214737-49.313684 44.570947-196.392421 178.607158-319.649684 302.295579-106.603789 106.981053-167.073684 132.796632-220.321684 155.648-24.576 10.617263-47.750737 20.48-74.590316 38.049685-43.816421 28.887579-56.212211 61.386105-59.176421 82.297263h306.661052c8.838737-5.12 27.917474-48.774737 40.582737-77.662316 11.856842-26.624 23.929263-54.218105 38.265263-78.632421 44.301474-75.237053 139.587368-107.789474 143.629474-109.136842a27.863579 27.863579 0 0 1 17.677474 52.870737c-0.862316 0.323368-79.710316 27.486316-113.340632 84.614736-12.611368 21.557895-24.090947 47.535158-35.139368 72.757895-26.138947 59.553684-48.666947 110.915368-91.621053 110.915369H182.757053a27.755789 27.755789 0 0 1-27.055158-21.396211c-0.646737-2.748632-10.617263-48.397474 19.402105-98.896842z m549.187368-442.691368l-3.610947-38.588632v-1.131789c0-14.228211-6.898526-26.947368-17.354105-35.408842 0.107789 0.646737-16.330105-8.838737-24.198737-9.916632-1.401263-0.161684-2.802526-0.485053-4.257684-0.485053H144.330105a46.187789 46.187789 0 0 0-45.810526 45.810527v1.185684l-10.24 113.286737 0.754526 1.562947c3.880421 1.131789 7.545263 3.233684 10.671158 6.25179 0.538947 0.538947 26.947368 25.6 77.824 50.391579 38.211368 18.539789 96.956632 39.989895 174.403369 47.427368 26.947368 2.533053 83.482947 3.772632 115.334736 0 31.366737-3.179789 59.823158-8.623158 85.261474-15.306105 17.084632-17.030737 33.684211-33.845895 51.361684-50.930527 41.660632-40.259368 83.159579-79.494737 120.400842-114.149052zM483.220211 646.197895c-3.610947 0.377263-7.275789 0.808421-10.940632 1.131789-37.941895 3.988211-89.896421 3.988211-125.305263 0.10779-86.069895-8.353684-151.552-32.606316-194.074948-53.571369a425.229474 425.229474 0 0 1-70.063157-42.954105l-19.509895 213.962105c0.538947 24.576 21.072842 44.840421 45.810526 44.894316h120.885895c34.115368-20.264421 75.776-39.019789 97.010526-51.900632 68.176842-41.337263 116.682105-77.662316 156.186948-111.669894zM409.653895 65.751579c-72.272842 0-137.377684 26.731789-184.212211 69.416421-44.732632 40.96-68.554105 85.423158-70.871579 146.432h508.119579c-2.317474-61.008842-24.144842-105.472-68.931368-146.432-46.834526-42.684632-111.939368-69.416421-184.104421-69.416421z" fill="#79889F" p-id="24622"></path></svg>